<svg width="188" height="37" viewBox="0 0 188 37" fill="none" xmlns="http://www.w3.org/2000/svg">
<path d="M18.5 37C28.7173 37 37 28.7173 37 18.5C37 8.28273 28.7173 0 18.5 0C8.28273 0 0 8.28273 0 18.5C0 28.7173 8.28273 37 18.5 37Z" fill="white"/>
<path d="M14 6.5H23V15.6429H14V6.5Z" fill="#0573BA"/>
<path d="M23 16.7856H14V25.9285H18.5005V30.5H23.0005L23 16.7856Z" fill="#100F16"/>
<path d="M54.41 5.36H50V30.95H54.41V5.36Z" fill="white"/>
<path d="M78.76 27.98C79.69 26.9 80.42 25.59 80.92 24.06C81.42 22.52 81.67 20.79 81.67 18.86V17.45C81.67 15.52 81.42 13.79 80.9 12.26C80.4 10.73 79.68 9.42 78.74 8.34C77.8 7.25 76.68 6.43 75.36 5.87C74.06 5.29 72.62 5 71.04 5C69.46 5 68.03 5.29 66.73 5.87C65.44 6.43 64.33 7.25 63.38 8.34C62.44 9.42 61.71 10.73 61.2 12.26C60.68 13.79 60.42 15.52 60.42 17.45V18.86C60.42 20.79 60.68 22.52 61.2 24.06C61.72 25.59 62.46 26.9 63.41 27.98C64.36 29.06 65.48 29.88 66.77 30.46C68.07 31.02 69.5 31.3 71.08 31.3C71.88 31.3 72.65 31.23 73.37 31.08L78.76 35.4L81.62 32.88L77.23 29.4C77.78 28.99 78.29 28.52 78.76 27.98ZM77.25 18.86C77.25 20.29 77.1 21.55 76.82 22.65C76.55 23.75 76.16 24.69 75.63 25.45C75.1 26.2 74.46 26.77 73.69 27.15C72.93 27.53 72.06 27.72 71.08 27.72C70.1 27.72 69.25 27.53 68.47 27.15C67.71 26.77 67.06 26.2 66.5 25.45C65.97 24.69 65.56 23.75 65.27 22.65C64.99 21.55 64.85 20.29 64.85 18.86V17.41C64.85 15.99 64.99 14.73 65.27 13.64C65.56 12.53 65.97 11.61 66.5 10.88C67.04 10.13 67.69 9.56 68.46 9.19C69.22 8.8 70.08 8.61 71.04 8.61C72 8.61 72.9 8.8 73.66 9.19C74.43 9.56 75.08 10.13 75.61 10.88C76.15 11.61 76.55 12.53 76.82 13.64C77.1 14.73 77.25 15.99 77.25 17.41V18.86Z" fill="white"/>
<path d="M115.9 24.32C115.9 25.4 115.68 26.37 115.25 27.24C114.81 28.1 114.19 28.83 113.38 29.44C112.59 30.04 111.63 30.5 110.5 30.83C109.39 31.14 108.14 31.3 106.77 31.3C105.54 31.3 104.33 31.14 103.13 30.81C101.95 30.48 100.87 29.98 99.9 29.32C98.93 28.64 98.15 27.79 97.58 26.78C97.01 25.76 96.72 24.57 96.72 23.22H101.13C101.13 24.05 101.27 24.76 101.55 25.34C101.85 25.93 102.25 26.41 102.77 26.78C103.28 27.15 103.88 27.42 104.56 27.59C105.25 27.77 105.99 27.86 106.77 27.86C107.8 27.86 108.67 27.71 109.36 27.42C110.06 27.12 110.59 26.71 110.94 26.19C111.29 25.66 111.47 25.05 111.47 24.36C111.47 23.83 111.38 23.36 111.22 22.95C111.07 22.54 110.79 22.17 110.39 21.83C110 21.49 109.43 21.16 108.71 20.84C107.99 20.51 107.08 20.18 105.96 19.84C104.75 19.47 103.62 19.05 102.59 18.59C101.57 18.12 100.68 17.58 99.92 16.98C99.16 16.35 98.56 15.65 98.14 14.85C97.72 14.04 97.51 13.11 97.51 12.05C97.51 10.99 97.73 10.06 98.16 9.21C98.61 8.35 99.23 7.61 100.04 6.99C100.86 6.36 101.83 5.87 102.94 5.53C104.05 5.18 105.29 5 106.63 5C108.53 5 110.17 5.36 111.54 6.06C112.92 6.76 113.98 7.71 114.72 8.89C115.47 10.07 115.84 11.38 115.84 12.81H111.47C111.47 11.97 111.29 11.22 110.92 10.58C110.57 9.92 110.03 9.41 109.3 9.03C108.59 8.66 107.68 8.47 106.58 8.47C105.54 8.47 104.67 8.63 103.98 8.94C103.29 9.26 102.77 9.69 102.43 10.23C102.09 10.76 101.92 11.37 101.92 12.05C101.92 12.53 102.03 12.97 102.26 13.37C102.48 13.76 102.82 14.12 103.28 14.46C103.73 14.79 104.31 15.1 105 15.39C105.69 15.69 106.5 15.97 107.44 16.24C108.86 16.66 110.1 17.13 111.15 17.64C112.21 18.15 113.08 18.72 113.79 19.37C114.49 20.01 115.02 20.74 115.37 21.56C115.72 22.37 115.9 23.29 115.9 24.32Z" fill="white"/>
<path d="M140.87 12.26C140.37 10.73 139.65 9.42 138.71 8.34C137.77 7.25 136.65 6.43 135.35 5.87C134.05 5.29 132.61 5 131.03 5C129.45 5 128.02 5.29 126.72 5.87C125.43 6.43 124.32 7.25 123.37 8.34C122.43 9.42 121.7 10.73 121.19 12.26C120.67 13.79 120.41 15.52 120.41 17.45V18.86C120.41 20.79 120.67 22.52 121.19 24.06C121.71 25.59 122.45 26.9 123.4 27.98C124.35 29.06 125.47 29.88 126.76 30.46C128.06 31.02 129.49 31.3 131.07 31.3C132.65 31.3 134.09 31.02 135.39 30.46C136.69 29.88 137.8 29.06 138.73 27.98C139.67 26.9 140.39 25.59 140.89 24.06C141.4 22.52 141.65 20.79 141.65 18.86V17.45C141.65 15.52 141.39 13.79 140.87 12.26ZM137.24 18.86C137.24 20.29 137.09 21.55 136.81 22.65C136.54 23.75 136.15 24.69 135.62 25.45C135.09 26.2 134.45 26.77 133.68 27.15C132.92 27.53 132.05 27.72 131.07 27.72C130.09 27.72 129.23 27.53 128.46 27.15C127.7 26.77 127.05 26.2 126.49 25.45C125.96 24.69 125.55 23.75 125.26 22.65C124.98 21.55 124.84 20.29 124.84 18.86V17.41C124.84 15.99 124.98 14.73 125.26 13.64C125.55 12.53 125.95 11.61 126.48 10.88C127.02 10.13 127.67 9.56 128.43 9.19C129.19 8.8 130.06 8.61 131.03 8.61C132 8.61 132.88 8.8 133.65 9.19C134.42 9.56 135.07 10.13 135.6 10.88C136.14 11.61 136.54 12.53 136.81 13.64C137.09 14.73 137.24 15.99 137.24 17.41V18.86Z" fill="white"/>
<path d="M151.91 8.87V16.55H162.35V20.05H151.91V30.95H147.5V5.36H163.81V8.87H151.91Z" fill="white"/>
<path d="M187.68 5.36V8.87H179.65V30.95H175.27V8.87H167.31V5.36H187.68Z" fill="white"/>
</svg>
