<svg width="134" height="34" viewBox="0 0 134 34" fill="none" xmlns="http://www.w3.org/2000/svg">
<path d="M43 25.5009V8.58105H46.2075V25.5009H43Z" fill="#1A1B1C"/>
<path d="M64.2098 21.6914C64.8914 20.3683 65.2121 18.8447 65.2121 17.0805C65.2121 15.3164 64.8914 13.7928 64.2098 12.4697C63.5282 11.1466 62.606 10.1041 61.3631 9.38241C60.1201 8.66071 58.6767 8.25977 56.9928 8.25977C55.3088 8.25977 53.8253 8.62061 52.6225 9.38241C51.3796 10.1041 50.4574 11.1466 49.7758 12.4697C49.0942 13.7928 48.7734 15.3164 48.7734 17.0805C48.7734 18.8447 49.0942 20.3683 49.7758 21.6914C50.4574 23.0145 51.3796 24.0569 52.6225 24.7786C53.8654 25.5003 55.3088 25.9013 56.9928 25.9013C58.6767 25.9013 60.1602 25.5404 61.3631 24.7786C61.4432 24.6984 61.5635 24.6583 61.6437 24.5782L63.1673 26.1017L65.1319 24.1371L63.6083 22.6135C63.8489 22.3329 64.0494 22.0121 64.2098 21.6914ZM56.9928 22.8541C55.9102 22.8541 55.0282 22.5734 54.3065 22.1324C53.5848 21.6513 53.0635 20.9697 52.7027 20.1277C52.3418 19.2456 52.1815 18.2433 52.1815 17.0805C52.1815 15.9178 52.3418 14.8753 52.7027 13.9933C53.0635 13.1112 53.5848 12.4296 54.3065 11.9484C55.0282 11.4673 55.9102 11.2267 56.9928 11.2668C58.0753 11.2668 58.9574 11.5475 59.6791 11.9885C60.4008 12.4697 60.922 13.1513 61.2829 13.9933C61.6437 14.8753 61.8041 15.8777 61.8041 17.0404C61.8041 18.2032 61.6437 19.2456 61.2829 20.1277C61.2829 20.1678 61.2428 20.1678 61.2428 20.2079L59.4786 18.4437L57.514 20.4083L59.3984 22.2928C58.7168 22.6937 57.9149 22.8541 56.9928 22.8541Z" fill="#1A1B1C"/>
<path d="M79.8468 25.8614C78.6038 25.8614 77.4411 25.6208 76.4387 25.1798C75.4364 24.7387 74.5944 24.0972 73.9529 23.2552C73.3114 22.4132 72.9104 21.451 72.71 20.2882L76.0378 19.8071C76.2784 20.7694 76.7595 21.5312 77.4812 22.0524C78.2029 22.5736 79.0449 22.8543 80.0071 22.8543C80.5284 22.8543 81.0496 22.7741 81.5307 22.6137C82.0118 22.4533 82.4128 22.2128 82.7335 21.892C83.0543 21.5713 83.2147 21.1703 83.2147 20.6892C83.2147 20.5288 83.1746 20.3684 83.1345 20.2081C83.0944 20.0477 83.0142 19.8873 82.8939 19.767C82.7736 19.6066 82.6133 19.4864 82.4128 19.3661C82.2123 19.2458 81.9317 19.1255 81.6109 19.0052L77.2005 17.7222C76.8798 17.642 76.4788 17.4816 76.0378 17.3213C75.5968 17.1609 75.1958 16.9203 74.7548 16.5996C74.3538 16.2788 73.993 15.8378 73.7524 15.3165C73.4718 14.7953 73.3515 14.1137 73.3515 13.3118C73.3515 12.1892 73.6321 11.2269 74.1935 10.4651C74.7548 9.70334 75.5166 9.14202 76.4788 8.78117C77.4411 8.42032 78.4835 8.21985 79.6463 8.25994C80.809 8.25994 81.8515 8.46041 82.7736 8.86136C83.6958 9.2623 84.4576 9.82362 85.059 10.5453C85.6604 11.267 86.1416 12.1892 86.3821 13.2316L82.934 13.8331C82.8137 13.2717 82.5732 12.8307 82.2524 12.4298C81.9317 12.0689 81.5307 11.7481 81.0496 11.5878C80.5685 11.3873 80.0873 11.267 79.5661 11.267C79.0449 11.267 78.6038 11.3071 78.1628 11.4675C77.7218 11.6279 77.3609 11.8283 77.0802 12.1491C76.7996 12.4298 76.6793 12.7906 76.6793 13.1915C76.6793 13.5524 76.7996 13.8731 77.0402 14.0736C77.2807 14.3142 77.5614 14.4746 77.8821 14.6349C78.243 14.7953 78.5637 14.8755 78.9246 14.9958L81.8515 15.7977C82.2925 15.918 82.7736 16.0783 83.2949 16.2788C83.8161 16.4793 84.3373 16.7198 84.8184 17.0807C85.2996 17.4415 85.7005 17.8826 86.0213 18.4439C86.342 19.0052 86.5024 19.6868 86.5024 20.5689C86.5024 21.4911 86.3019 22.2529 85.9411 22.9345C85.5802 23.6161 85.059 24.1774 84.4175 24.6184C83.776 25.0595 83.0543 25.3802 82.2524 25.6208C81.5307 25.7812 80.6887 25.8614 79.8468 25.8614Z" fill="#1A1B1C"/>
<path d="M96.4859 25.8612C94.802 25.8612 93.3185 25.5004 92.1157 24.7386C90.8727 24.0169 89.9506 22.9744 89.269 21.6513C88.5874 20.3282 88.2666 18.8046 88.2666 17.0405C88.2666 15.2763 88.5874 13.7527 89.269 12.4296C89.9506 11.1065 90.8727 10.0641 92.1157 9.34237C93.3586 8.62067 94.802 8.21973 96.4859 8.21973C98.1699 8.21973 99.6534 8.58058 100.856 9.34237C102.099 10.0641 103.021 11.1065 103.703 12.4296C104.385 13.7527 104.705 15.2763 104.705 17.0405C104.705 18.8046 104.385 20.3282 103.703 21.6513C103.021 22.9744 102.099 24.0169 100.856 24.7386C99.6534 25.5004 98.1699 25.8612 96.4859 25.8612ZM96.4859 22.8542C97.5685 22.8542 98.4506 22.6537 99.1723 22.1726C99.894 21.6914 100.415 21.0098 100.776 20.1277C101.137 19.2457 101.297 18.2032 101.297 17.0405C101.297 15.8777 101.137 14.8353 100.776 13.9933C100.415 13.1112 99.894 12.4697 99.1723 11.9886C98.4506 11.5075 97.5685 11.2669 96.4859 11.2669C95.4034 11.2669 94.5213 11.4674 93.7996 11.9485C93.0779 12.4296 92.5567 13.1112 92.1958 13.9933C91.835 14.8754 91.6746 15.9178 91.6746 17.0806C91.6746 18.2433 91.835 19.2858 92.1958 20.1277C92.5567 20.9697 93.0779 21.6513 93.7996 22.1325C94.5213 22.6136 95.4034 22.8542 96.4859 22.8542Z" fill="#1A1B1C"/>
<path d="M107.031 25.5009V8.58105H117.375V11.7886H110.238V15.4773H115.972V18.6848H110.238V25.541H107.031V25.5009Z" fill="#1A1B1C"/>
<path d="M124.632 25.5009V11.5881H119.299V8.58105H133.172V11.5881H127.839V25.541H124.632V25.5009Z" fill="#1A1B1C"/>
<path d="M17 34C26.3888 34 34 26.3888 34 17C34 7.61116 26.3888 0 17 0C7.61116 0 0 7.61116 0 17C0 26.3888 7.61116 34 17 34Z" fill="#E1E9EF"/>
<path d="M20.8088 14.1935C20.8088 14.2336 20.8088 14.2737 20.7687 14.3138C20.7687 14.3539 20.7287 14.394 20.6886 14.4341C20.6485 14.4741 20.6084 14.4741 20.5683 14.5142C20.5282 14.5142 20.4881 14.5543 20.448 14.5543H13.5518C13.5117 14.5543 13.4716 14.5543 13.4315 14.5142C13.3914 14.5142 13.3513 14.4741 13.3112 14.4341C13.2711 14.394 13.2711 14.3539 13.231 14.3138C13.231 14.2737 13.1909 14.2336 13.1909 14.1935V7.37745C13.1909 7.33736 13.1909 7.29726 13.231 7.25717C13.231 7.21707 13.2711 7.17698 13.3112 7.13689C13.3513 7.09679 13.3914 7.09679 13.4315 7.0567C13.4716 7.0567 13.5117 7.0166 13.5518 7.0166H20.448C20.5282 7.0166 20.6485 7.0567 20.6886 7.13689C20.7687 7.21707 20.8088 7.29726 20.8088 7.37745V14.1935Z" fill="#0573BA"/>
<path d="M20.4881 15.7568H13.5518C13.5117 15.7568 13.4716 15.7568 13.4315 15.7969C13.3914 15.7969 13.3513 15.837 13.3112 15.8771C13.2711 15.9172 13.2711 15.9573 13.231 15.9974C13.231 16.0375 13.1909 16.0776 13.1909 16.1177V22.8936C13.1909 22.9337 13.1909 22.9738 13.231 23.0139C13.231 23.054 13.2711 23.0941 13.3112 23.1342C13.3513 23.1743 13.3914 23.2144 13.4315 23.2144C13.4716 23.2144 13.5117 23.2545 13.5518 23.2545H16.6791C16.7192 23.2545 16.7593 23.2545 16.7994 23.2545C16.8395 23.2545 16.8796 23.2946 16.9197 23.3347C16.9598 23.3748 16.9598 23.4149 16.9999 23.4149C16.9999 23.4549 17.04 23.495 17.04 23.5351V23.5752V26.6625C17.04 26.7026 17.04 26.7427 17.0801 26.7828C17.0801 26.8229 17.1202 26.863 17.1603 26.9031C17.2004 26.9432 17.2404 26.9432 17.2805 26.9833C17.3206 26.9833 17.3607 27.0233 17.4008 27.0233H20.4881C20.5282 27.0233 20.5683 27.0233 20.6084 26.9833C20.6485 26.9833 20.6886 26.9432 20.7287 26.9031C20.7687 26.863 20.7687 26.8229 20.8088 26.7828C20.8088 26.7427 20.8489 26.7026 20.8489 26.6625V16.1177C20.8489 16.0375 20.8088 15.9573 20.7287 15.8771C20.6485 15.7969 20.5683 15.7568 20.4881 15.7568Z" fill="#1A1B1C"/>
</svg>
