<svg width="129" height="26" viewBox="0 0 129 26" fill="none" xmlns="http://www.w3.org/2000/svg">
<path d="M13 26C20.1797 26 26 20.1797 26 13C26 5.8203 20.1797 0 13 0C5.8203 0 0 5.8203 0 13C0 20.1797 5.8203 26 13 26Z" fill="white"/>
<path d="M15.4386 4.875H10.5636C10.1148 4.875 9.75107 5.23877 9.75107 5.6875V10.5625C9.75107 11.0112 10.1148 11.375 10.5636 11.375H15.4386C15.8873 11.375 16.2511 11.0112 16.2511 10.5625V5.6875C16.2511 5.23877 15.8873 4.875 15.4386 4.875Z" fill="#0573BA"/>
<path d="M15.4381 12.1875H10.5631C10.1144 12.1875 9.75061 12.5513 9.75061 13V17.875C9.75061 18.3237 10.1144 18.6875 10.5631 18.6875H15.4381C15.8868 18.6875 16.2506 18.3237 16.2506 17.875V13C16.2506 12.5513 15.8868 12.1875 15.4381 12.1875Z" fill="#100F16"/>
<path d="M15.4379 15.4375H13.0004C12.5517 15.4375 12.1879 15.8013 12.1879 16.25V21.125C12.1879 21.5737 12.5517 21.9375 13.0004 21.9375H15.4379C15.8867 21.9375 16.2504 21.5737 16.2504 21.125V16.25C16.2504 15.8013 15.8867 15.4375 15.4379 15.4375Z" fill="#100F16"/>
<path d="M38.875 4.9375V22H35.9336V4.9375H38.875ZM52.5264 19.7266L57.0147 23.2891L55.1045 24.9648L50.6983 21.4375L52.5264 19.7266ZM57.0498 13V13.9375C57.0498 15.2266 56.8819 16.3828 56.5459 17.4062C56.21 18.4297 55.7295 19.3008 55.1045 20.0195C54.4795 20.7383 53.7334 21.2891 52.8663 21.6719C51.9991 22.0469 51.0381 22.2344 49.9834 22.2344C48.9366 22.2344 47.9795 22.0469 47.1123 21.6719C46.253 21.2891 45.5069 20.7383 44.8741 20.0195C44.2413 19.3008 43.7491 18.4297 43.3975 17.4062C43.0538 16.3828 42.8819 15.2266 42.8819 13.9375V13C42.8819 11.7109 43.0538 10.5586 43.3975 9.54297C43.7413 8.51953 44.2256 7.64844 44.8506 6.92969C45.4834 6.20312 46.2295 5.65234 47.0889 5.27734C47.9561 4.89453 48.9131 4.70312 49.96 4.70312C51.0147 4.70312 51.9756 4.89453 52.8428 5.27734C53.7178 5.65234 54.4678 6.20312 55.0928 6.92969C55.7178 7.64844 56.1983 8.51953 56.5342 9.54297C56.878 10.5586 57.0498 11.7109 57.0498 13ZM54.0967 13.9375V12.9766C54.0967 12.0234 54.003 11.1836 53.8155 10.457C53.6358 9.72266 53.3663 9.10938 53.0069 8.61719C52.6553 8.11719 52.2217 7.74219 51.7061 7.49219C51.1983 7.23438 50.6163 7.10547 49.96 7.10547C49.3194 7.10547 48.7452 7.23438 48.2373 7.49219C47.7295 7.74219 47.2959 8.11719 46.9366 8.61719C46.5772 9.10938 46.3038 9.72266 46.1163 10.457C45.9288 11.1836 45.835 12.0234 45.835 12.9766V13.9375C45.835 14.8906 45.9288 15.7344 46.1163 16.4688C46.3038 17.2031 46.5772 17.8242 46.9366 18.332C47.3038 18.832 47.7413 19.2109 48.2491 19.4688C48.7647 19.7188 49.3428 19.8438 49.9834 19.8438C50.6397 19.8438 51.2217 19.7188 51.7295 19.4688C52.2373 19.2109 52.667 18.832 53.0186 18.332C53.3702 17.8242 53.6358 17.2031 53.8155 16.4688C54.003 15.7344 54.0967 14.8906 54.0967 13.9375ZM76.9113 17.6055C76.9113 17.2539 76.8566 16.9414 76.7472 16.668C76.6456 16.3945 76.462 16.1445 76.1964 15.918C75.9308 15.6914 75.5558 15.4727 75.0714 15.2617C74.5948 15.043 73.9855 14.8203 73.2433 14.5938C72.4308 14.3438 71.6808 14.0664 70.9933 13.7617C70.3136 13.4492 69.7198 13.0898 69.212 12.6836C68.7042 12.2695 68.3097 11.7969 68.0284 11.2656C67.7472 10.7266 67.6066 10.1055 67.6066 9.40234C67.6066 8.70703 67.7511 8.07422 68.0402 7.50391C68.337 6.93359 68.755 6.44141 69.2941 6.02734C69.8409 5.60547 70.4855 5.28125 71.2277 5.05469C71.9698 4.82031 72.7902 4.70312 73.6886 4.70312C74.9542 4.70312 76.0441 4.9375 76.9581 5.40625C77.88 5.875 78.587 6.50391 79.0792 7.29297C79.5792 8.08203 79.8292 8.95312 79.8292 9.90625H76.9113C76.9113 9.34375 76.7902 8.84766 76.548 8.41797C76.3136 7.98047 75.9542 7.63672 75.4698 7.38672C74.9933 7.13672 74.3878 7.01172 73.6534 7.01172C72.9581 7.01172 72.38 7.11719 71.9191 7.32812C71.4581 7.53906 71.1144 7.82422 70.8878 8.18359C70.6613 8.54297 70.548 8.94922 70.548 9.40234C70.548 9.72266 70.6222 10.0156 70.7706 10.2812C70.9191 10.5391 71.1456 10.7812 71.4503 11.0078C71.755 11.2266 72.1378 11.4336 72.5988 11.6289C73.0597 11.8242 73.6027 12.0117 74.2277 12.1914C75.173 12.4727 75.9972 12.7852 76.7003 13.1289C77.4034 13.4648 77.9894 13.8477 78.4581 14.2773C78.9269 14.707 79.2784 15.1953 79.5128 15.7422C79.7472 16.2812 79.8644 16.8945 79.8644 17.582C79.8644 18.3008 79.7198 18.9492 79.4308 19.5273C79.1417 20.0977 78.7277 20.5859 78.1886 20.9922C77.6573 21.3906 77.0167 21.6992 76.2667 21.918C75.5245 22.1289 74.6964 22.2344 73.7823 22.2344C72.962 22.2344 72.1534 22.125 71.3566 21.9062C70.5675 21.6875 69.8488 21.3555 69.2003 20.9102C68.5519 20.457 68.0363 19.8945 67.6534 19.2227C67.2706 18.543 67.0792 17.75 67.0792 16.8438H70.0206C70.0206 17.3984 70.1144 17.8711 70.3019 18.2617C70.4972 18.6523 70.7667 18.9727 71.1105 19.2227C71.4542 19.4648 71.8527 19.6445 72.3058 19.7617C72.7667 19.8789 73.2589 19.9375 73.7823 19.9375C74.4698 19.9375 75.0441 19.8398 75.505 19.6445C75.9738 19.4492 76.3253 19.1758 76.5597 18.8242C76.7941 18.4727 76.9113 18.0664 76.9113 17.6055ZM97.0314 13V13.9375C97.0314 15.2266 96.8634 16.3828 96.5275 17.4062C96.1916 18.4297 95.7111 19.3008 95.0861 20.0195C94.4689 20.7383 93.7267 21.2891 92.8595 21.6719C91.9923 22.0469 91.0314 22.2344 89.9767 22.2344C88.9298 22.2344 87.9728 22.0469 87.1056 21.6719C86.2463 21.2891 85.5002 20.7383 84.8673 20.0195C84.2345 19.3008 83.7423 18.4297 83.3908 17.4062C83.047 16.3828 82.8752 15.2266 82.8752 13.9375V13C82.8752 11.7109 83.047 10.5586 83.3908 9.54297C83.7345 8.51953 84.2189 7.64844 84.8439 6.92969C85.4767 6.20312 86.2228 5.65234 87.0822 5.27734C87.9494 4.89453 88.9064 4.70312 89.9533 4.70312C91.008 4.70312 91.9689 4.89453 92.8361 5.27734C93.7033 5.65234 94.4494 6.20312 95.0744 6.92969C95.6994 7.64844 96.1798 8.51953 96.5158 9.54297C96.8595 10.5586 97.0314 11.7109 97.0314 13ZM94.09 13.9375V12.9766C94.09 12.0234 93.9963 11.1836 93.8088 10.457C93.6291 9.72266 93.3595 9.10938 93.0002 8.61719C92.6486 8.11719 92.215 7.74219 91.6994 7.49219C91.1838 7.23438 90.6017 7.10547 89.9533 7.10547C89.3048 7.10547 88.7267 7.23438 88.2189 7.49219C87.7111 7.74219 87.2775 8.11719 86.9181 8.61719C86.5666 9.10938 86.297 9.72266 86.1095 10.457C85.922 11.1836 85.8283 12.0234 85.8283 12.9766V13.9375C85.8283 14.8906 85.922 15.7344 86.1095 16.4688C86.297 17.2031 86.5705 17.8242 86.9298 18.332C87.297 18.832 87.7345 19.2109 88.2423 19.4688C88.7502 19.7188 89.3283 19.8438 89.9767 19.8438C90.633 19.8438 91.215 19.7188 91.7228 19.4688C92.2306 19.2109 92.6603 18.832 93.0119 18.332C93.3634 17.8242 93.6291 17.2031 93.8088 16.4688C93.9963 15.7344 94.09 14.8906 94.09 13.9375ZM103.874 4.9375V22H100.933V4.9375H103.874ZM110.835 12.4023V14.7344H103.124V12.4023H110.835ZM111.808 4.9375V7.28125H103.124V4.9375H111.808ZM122.365 4.9375V22H119.448V4.9375H122.365ZM127.721 4.9375V7.28125H114.139V4.9375H127.721Z" fill="#076192"/>
</svg>
