<svg width="162" height="34" viewBox="0 0 162 34" fill="none" xmlns="http://www.w3.org/2000/svg">
<path d="M16 33C24.8366 33 32 25.8366 32 17C32 8.16344 24.8366 1 16 1C7.16344 1 0 8.16344 0 17C0 25.8366 7.16344 33 16 33Z" fill="#F1F3F4"/>
<path d="M19.125 8H13.875C13.3918 8 13 8.39175 13 8.875V14.125C13 14.6082 13.3918 15 13.875 15H19.125C19.6082 15 20 14.6082 20 14.125V8.875C20 8.39175 19.6082 8 19.125 8Z" fill="#0573BA"/>
<path fill-rule="evenodd" clip-rule="evenodd" d="M13.875 16H19.125C19.6082 16 20 16.3731 20 16.8333V20.75V21.8333V25.25C20 25.6642 19.6418 26 19.2 26H16.8C16.3582 26 16 25.6642 16 25.25V22.6667H13.875C13.3918 22.6667 13 22.2936 13 21.8333V16.8333C13 16.3731 13.3918 16 13.875 16Z" fill="#100F16"/>
<path d="M57.7448 6.09375V26H54.3132V6.09375H57.7448ZM73.6715 23.3477L78.9078 27.5039L76.6793 29.459L71.5387 25.3438L73.6715 23.3477ZM78.9488 15.5V16.5938C78.9488 18.0977 78.7529 19.4466 78.3609 20.6406C77.969 21.8346 77.4085 22.8509 76.6793 23.6895C75.9501 24.528 75.0797 25.1706 74.068 25.6172C73.0562 26.0547 71.9352 26.2734 70.7047 26.2734C69.4833 26.2734 68.3668 26.0547 67.3551 25.6172C66.3525 25.1706 65.482 24.528 64.7437 23.6895C64.0055 22.8509 63.4312 21.8346 63.0211 20.6406C62.62 19.4466 62.4195 18.0977 62.4195 16.5938V15.5C62.4195 13.9961 62.62 12.6517 63.0211 11.4668C63.4221 10.2728 63.9872 9.25651 64.7164 8.41797C65.4547 7.57031 66.3251 6.92773 67.3277 6.49023C68.3395 6.04362 69.456 5.82031 70.6773 5.82031C71.9078 5.82031 73.0289 6.04362 74.0406 6.49023C75.0615 6.92773 75.9365 7.57031 76.6656 8.41797C77.3948 9.25651 77.9553 10.2728 78.3473 11.4668C78.7483 12.6517 78.9488 13.9961 78.9488 15.5ZM75.5035 16.5938V15.4727C75.5035 14.3607 75.3941 13.3809 75.1754 12.5332C74.9658 11.6764 74.6513 10.9609 74.232 10.3867C73.8219 9.80339 73.316 9.36589 72.7145 9.07422C72.122 8.77344 71.443 8.62305 70.6773 8.62305C69.9299 8.62305 69.26 8.77344 68.6676 9.07422C68.0751 9.36589 67.5693 9.80339 67.15 10.3867C66.7307 10.9609 66.4117 11.6764 66.193 12.5332C65.9742 13.3809 65.8648 14.3607 65.8648 15.4727V16.5938C65.8648 17.7057 65.9742 18.6901 66.193 19.5469C66.4117 20.4036 66.7307 21.1283 67.15 21.7207C67.5784 22.304 68.0888 22.7461 68.6812 23.0469C69.2828 23.3385 69.9573 23.4844 70.7047 23.4844C71.4703 23.4844 72.1493 23.3385 72.7418 23.0469C73.3342 22.7461 73.8355 22.304 74.2457 21.7207C74.6559 21.1283 74.9658 20.4036 75.1754 19.5469C75.3941 18.6901 75.5035 17.7057 75.5035 16.5938ZM102.12 20.873C102.12 20.4629 102.057 20.0983 101.929 19.7793C101.811 19.4603 101.596 19.1686 101.286 18.9043C100.977 18.64 100.539 18.3848 99.974 18.1387C99.418 17.8835 98.7071 17.6237 97.8412 17.3594C96.8933 17.0677 96.0183 16.7441 95.2162 16.3887C94.4232 16.0241 93.7305 15.6048 93.138 15.1309C92.5456 14.6478 92.0853 14.0964 91.7572 13.4766C91.4291 12.8477 91.265 12.123 91.265 11.3027C91.265 10.4915 91.4336 9.75326 91.7709 9.08789C92.1172 8.42253 92.6048 7.84831 93.2337 7.36523C93.8718 6.87305 94.6237 6.49479 95.4896 6.23047C96.3555 5.95703 97.3125 5.82031 98.3607 5.82031C99.8373 5.82031 101.109 6.09375 102.175 6.64062C103.251 7.1875 104.076 7.92122 104.65 8.8418C105.233 9.76237 105.525 10.7786 105.525 11.8906H102.12C102.12 11.2344 101.979 10.6556 101.697 10.1543C101.423 9.64388 101.004 9.24284 100.439 8.95117C99.8828 8.65951 99.1765 8.51367 98.3197 8.51367C97.5085 8.51367 96.834 8.63672 96.2962 8.88281C95.7585 9.12891 95.3574 9.46159 95.0931 9.88086C94.8288 10.3001 94.6966 10.7741 94.6966 11.3027C94.6966 11.6764 94.7832 12.0182 94.9564 12.3281C95.1296 12.6289 95.3939 12.9115 95.7494 13.1758C96.1048 13.431 96.5515 13.6725 97.0892 13.9004C97.627 14.1283 98.2604 14.347 98.9896 14.5566C100.092 14.8848 101.054 15.2493 101.874 15.6504C102.695 16.0423 103.378 16.4889 103.925 16.9902C104.472 17.4915 104.882 18.0612 105.156 18.6992C105.429 19.3281 105.566 20.0436 105.566 20.8457C105.566 21.6842 105.397 22.4408 105.06 23.1152C104.723 23.7806 104.24 24.3503 103.611 24.8242C102.991 25.2891 102.244 25.6491 101.369 25.9043C100.503 26.1504 99.5365 26.2734 98.4701 26.2734C97.513 26.2734 96.5697 26.1458 95.64 25.8906C94.7194 25.6354 93.8809 25.248 93.1244 24.7285C92.3679 24.1999 91.7663 23.5436 91.3197 22.7598C90.8731 21.9668 90.6498 21.0417 90.6498 19.9844H94.0814C94.0814 20.6315 94.1908 21.1829 94.4095 21.6387C94.6374 22.0944 94.9518 22.4681 95.3529 22.7598C95.7539 23.0423 96.2188 23.252 96.7474 23.3887C97.2852 23.5254 97.8594 23.5938 98.4701 23.5938C99.2722 23.5938 99.9421 23.4798 100.48 23.252C101.027 23.0241 101.437 22.7051 101.71 22.2949C101.984 21.8848 102.12 21.4108 102.12 20.873ZM125.594 15.5V16.5938C125.594 18.0977 125.398 19.4466 125.006 20.6406C124.614 21.8346 124.054 22.8509 123.324 23.6895C122.604 24.528 121.739 25.1706 120.727 25.6172C119.715 26.0547 118.594 26.2734 117.364 26.2734C116.142 26.2734 115.026 26.0547 114.014 25.6172C113.011 25.1706 112.141 24.528 111.403 23.6895C110.664 22.8509 110.09 21.8346 109.68 20.6406C109.279 19.4466 109.078 18.0977 109.078 16.5938V15.5C109.078 13.9961 109.279 12.6517 109.68 11.4668C110.081 10.2728 110.646 9.25651 111.375 8.41797C112.114 7.57031 112.984 6.92773 113.987 6.49023C114.998 6.04362 116.115 5.82031 117.336 5.82031C118.567 5.82031 119.688 6.04362 120.699 6.49023C121.711 6.92773 122.582 7.57031 123.311 8.41797C124.04 9.25651 124.6 10.2728 124.992 11.4668C125.393 12.6517 125.594 13.9961 125.594 15.5ZM122.162 16.5938V15.4727C122.162 14.3607 122.053 13.3809 121.834 12.5332C121.625 11.6764 121.31 10.9609 120.891 10.3867C120.481 9.80339 119.975 9.36589 119.373 9.07422C118.772 8.77344 118.093 8.62305 117.336 8.62305C116.58 8.62305 115.905 8.77344 115.313 9.07422C114.72 9.36589 114.214 9.80339 113.795 10.3867C113.385 10.9609 113.071 11.6764 112.852 12.5332C112.633 13.3809 112.524 14.3607 112.524 15.4727V16.5938C112.524 17.7057 112.633 18.6901 112.852 19.5469C113.071 20.4036 113.39 21.1283 113.809 21.7207C114.237 22.304 114.748 22.7461 115.34 23.0469C115.933 23.3385 116.607 23.4844 117.364 23.4844C118.129 23.4844 118.808 23.3385 119.401 23.0469C119.993 22.7461 120.494 22.304 120.905 21.7207C121.315 21.1283 121.625 20.4036 121.834 19.5469C122.053 18.6901 122.162 17.7057 122.162 16.5938ZM133.577 6.09375V26H130.146V6.09375H133.577ZM141.698 14.8027V17.5234H132.702V14.8027H141.698ZM142.833 6.09375V8.82812H132.702V6.09375H142.833ZM155.15 6.09375V26H151.746V6.09375H155.15ZM161.398 6.09375V8.82812H145.553V6.09375H161.398Z" fill="#F1F3F4"/>
</svg>
